<svg xmlns="http://www.w3.org/2000/svg" width="24" height="24" fill="none"><path fill="currentColor" d="M2 20v-2.8a3 3 0 0 1 .425-1.563A2.794 2.794 0 0 1 3.6 14.55c1-.5 2.038-.883 3.113-1.15 1.074-.267 2.17-.4 3.287-.4.417 0 .833.03 1.25.088.417.058.833.129 1.25.212v1.575c-.75.367-1.354.85-1.813 1.45-.458.6-.687 1.383-.687 2.35V20H2Zm10 0v-1.4c0-.4.104-.77.313-1.113a1.76 1.76 0 0 1 .887-.737c.6-.25 1.22-.438 1.863-.563a10.11 10.11 0 0 1 3.874 0 9.604 9.604 0 0 1 1.863.563c.383.15.68.396.887.738.209.341.313.712.313 1.112V20H12Zm5-5c-.7 0-1.292-.242-1.775-.725-.483-.483-.725-1.075-.725-1.775s.242-1.292.725-1.775C15.708 10.242 16.3 10 17 10s1.292.242 1.775.725c.483.483.725 1.075.725 1.775s-.242 1.292-.725 1.775C18.292 14.758 17.7 15 17 15Zm-7-3c-1.1 0-2.042-.392-2.825-1.175C6.392 10.042 6 9.1 6 8s.392-2.042 1.175-2.825C7.958 4.392 8.9 4 10 4s2.042.392 2.825 1.175C13.608 5.958 14 6.9 14 8s-.392 2.042-1.175 2.825C12.042 11.608 11.1 12 10 12Z"/></svg>
